<svg width="512" height="512" viewBox="0 0 512 512" fill="none" xmlns="http://www.w3.org/2000/svg">
<path d="M210.932 261.84C207.217 261.84 204.157 262.843 203.939 265.95C203.611 270.16 202.737 276.675 192.794 276.675C185.254 276.675 181.102 272.967 181.102 265.148V237.182C181.101 229.364 185.253 225.655 192.574 225.655C202.954 225.655 203.719 232.471 203.938 235.578C204.047 238.585 206.998 239.688 211.041 239.688C215.848 239.688 218.143 238.485 218.143 233.273C218.143 221.646 207.326 214.228 192.138 214.228C178.37 214.228 166.897 220.443 166.897 237.182V265.148C166.897 281.888 178.261 288.102 192.028 288.102C207.326 288.102 218.143 280.384 218.143 268.255C218.143 263.143 215.849 261.84 210.932 261.84Z" fill="black"/>
<path d="M255.073 214.228H233.11C229.832 214.228 227.756 216.132 227.756 218.238V283.392C227.756 286.098 231.253 287.502 234.858 287.502C238.354 287.502 241.96 286.098 241.96 283.392V260.137H254.198C268.622 260.137 279.876 253.822 279.876 237.383V236.781C279.876 220.342 268.949 214.228 255.073 214.228ZM265.671 238.386C265.671 246.205 261.3 249.914 254.198 249.914H241.96V225.655H254.198C261.301 225.655 265.671 229.364 265.671 237.183V238.386Z" fill="black"/>
<path d="M333.633 214.228C330.027 214.228 326.531 215.431 326.531 218.238V265.149C326.531 272.968 322.051 276.676 314.512 276.676C306.972 276.676 302.492 272.968 302.492 265.149V218.238C302.492 215.431 298.886 214.228 295.39 214.228C291.784 214.228 288.287 215.431 288.287 218.238V265.149C288.287 281.889 299.76 288.103 314.511 288.103C329.153 288.103 340.735 281.888 340.735 265.149V218.238C340.735 215.431 337.129 214.228 333.633 214.228Z" fill="black"/>
<path d="M67 71.68C71.4458 71.68 75.05 68.0759 75.05 63.63C75.05 59.1841 71.4458 55.58 67 55.58C62.5541 55.58 58.95 59.1841 58.95 63.63C58.95 68.0759 62.5541 71.68 67 71.68Z" fill="black"/>
<path d="M101.24 71.68C105.686 71.68 109.29 68.0759 109.29 63.63C109.29 59.1841 105.686 55.58 101.24 55.58C96.794 55.58 93.1899 59.1841 93.1899 63.63C93.1899 68.0759 96.794 71.68 101.24 71.68Z" fill="black"/>
<path d="M135.49 71.68C139.936 71.68 143.54 68.0759 143.54 63.63C143.54 59.1841 139.936 55.58 135.49 55.58C131.044 55.58 127.44 59.1841 127.44 63.63C127.44 68.0759 131.044 71.68 135.49 71.68Z" fill="black"/>
<path d="M169.73 71.68C174.176 71.68 177.78 68.0759 177.78 63.63C177.78 59.1841 174.176 55.58 169.73 55.58C165.284 55.58 161.68 59.1841 161.68 63.63C161.68 68.0759 165.284 71.68 169.73 71.68Z" fill="black"/>
<path d="M203.97 71.68C208.416 71.68 212.02 68.0759 212.02 63.63C212.02 59.1841 208.416 55.58 203.97 55.58C199.524 55.58 195.92 59.1841 195.92 63.63C195.92 68.0759 199.524 71.68 203.97 71.68Z" fill="black"/>
<path d="M238.21 71.68C242.656 71.68 246.26 68.0759 246.26 63.63C246.26 59.1841 242.656 55.58 238.21 55.58C233.764 55.58 230.16 59.1841 230.16 63.63C230.16 68.0759 233.764 71.68 238.21 71.68Z" fill="black"/>
<path d="M272.45 71.68C276.896 71.68 280.5 68.0759 280.5 63.63C280.5 59.1841 276.896 55.58 272.45 55.58C268.004 55.58 264.4 59.1841 264.4 63.63C264.4 68.0759 268.004 71.68 272.45 71.68Z" fill="black"/>
<path d="M306.69 71.68C311.136 71.68 314.74 68.0759 314.74 63.63C314.74 59.1841 311.136 55.58 306.69 55.58C302.244 55.58 298.64 59.1841 298.64 63.63C298.64 68.0759 302.244 71.68 306.69 71.68Z" fill="black"/>
<path d="M340.94 71.68C345.386 71.68 348.99 68.0759 348.99 63.63C348.99 59.1841 345.386 55.58 340.94 55.58C336.494 55.58 332.89 59.1841 332.89 63.63C332.89 68.0759 336.494 71.68 340.94 71.68Z" fill="black"/>
<path d="M375.18 71.68C379.626 71.68 383.23 68.0759 383.23 63.63C383.23 59.1841 379.626 55.58 375.18 55.58C370.734 55.58 367.13 59.1841 367.13 63.63C367.13 68.0759 370.734 71.68 375.18 71.68Z" fill="black"/>
<path d="M409.42 71.68C413.866 71.68 417.47 68.0759 417.47 63.63C417.47 59.1841 413.866 55.58 409.42 55.58C404.974 55.58 401.37 59.1841 401.37 63.63C401.37 68.0759 404.974 71.68 409.42 71.68Z" fill="black"/>
<path d="M443.66 71.68C448.106 71.68 451.71 68.0759 451.71 63.63C451.71 59.1841 448.106 55.58 443.66 55.58C439.214 55.58 435.61 59.1841 435.61 63.63C435.61 68.0759 439.214 71.68 443.66 71.68Z" fill="black"/>
<path d="M67 106.36C71.4458 106.36 75.05 102.756 75.05 98.31C75.05 93.8641 71.4458 90.26 67 90.26C62.5541 90.26 58.95 93.8641 58.95 98.31C58.95 102.756 62.5541 106.36 67 106.36Z" fill="black"/>
<path d="M101.24 106.36C105.686 106.36 109.29 102.756 109.29 98.31C109.29 93.8641 105.686 90.26 101.24 90.26C96.794 90.26 93.1899 93.8641 93.1899 98.31C93.1899 102.756 96.794 106.36 101.24 106.36Z" fill="black"/>
<path d="M135.49 106.36C139.936 106.36 143.54 102.756 143.54 98.31C143.54 93.8641 139.936 90.26 135.49 90.26C131.044 90.26 127.44 93.8641 127.44 98.31C127.44 102.756 131.044 106.36 135.49 106.36Z" fill="black"/>
<path d="M169.73 106.36C174.176 106.36 177.78 102.756 177.78 98.31C177.78 93.8641 174.176 90.26 169.73 90.26C165.284 90.26 161.68 93.8641 161.68 98.31C161.68 102.756 165.284 106.36 169.73 106.36Z" fill="black"/>
<path d="M203.97 106.36C208.416 106.36 212.02 102.756 212.02 98.31C212.02 93.8641 208.416 90.26 203.97 90.26C199.524 90.26 195.92 93.8641 195.92 98.31C195.92 102.756 199.524 106.36 203.97 106.36Z" fill="black"/>
<path d="M238.21 106.36C242.656 106.36 246.26 102.756 246.26 98.31C246.26 93.8641 242.656 90.26 238.21 90.26C233.764 90.26 230.16 93.8641 230.16 98.31C230.16 102.756 233.764 106.36 238.21 106.36Z" fill="black"/>
<path d="M272.45 106.36C276.896 106.36 280.5 102.756 280.5 98.31C280.5 93.8641 276.896 90.26 272.45 90.26C268.004 90.26 264.4 93.8641 264.4 98.31C264.4 102.756 268.004 106.36 272.45 106.36Z" fill="black"/>
<path d="M306.69 106.36C311.136 106.36 314.74 102.756 314.74 98.31C314.74 93.8641 311.136 90.26 306.69 90.26C302.244 90.26 298.64 93.8641 298.64 98.31C298.64 102.756 302.244 106.36 306.69 106.36Z" fill="black"/>
<path d="M340.94 106.36C345.386 106.36 348.99 102.756 348.99 98.31C348.99 93.8641 345.386 90.26 340.94 90.26C336.494 90.26 332.89 93.8641 332.89 98.31C332.89 102.756 336.494 106.36 340.94 106.36Z" fill="black"/>
<path d="M375.18 106.36C379.626 106.36 383.23 102.756 383.23 98.31C383.23 93.8641 379.626 90.26 375.18 90.26C370.734 90.26 367.13 93.8641 367.13 98.31C367.13 102.756 370.734 106.36 375.18 106.36Z" fill="black"/>
<path d="M409.42 106.36C413.866 106.36 417.47 102.756 417.47 98.31C417.47 93.8641 413.866 90.26 409.42 90.26C404.974 90.26 401.37 93.8641 401.37 98.31C401.37 102.756 404.974 106.36 409.42 106.36Z" fill="black"/>
<path d="M443.66 106.36C448.106 106.36 451.71 102.756 451.71 98.31C451.71 93.8641 448.106 90.26 443.66 90.26C439.214 90.26 435.61 93.8641 435.61 98.31C435.61 102.756 439.214 106.36 443.66 106.36Z" fill="black"/>
<path d="M67 141.35C71.4458 141.35 75.05 137.746 75.05 133.3C75.05 128.854 71.4458 125.25 67 125.25C62.5541 125.25 58.95 128.854 58.95 133.3C58.95 137.746 62.5541 141.35 67 141.35Z" fill="black"/>
<path d="M101.24 141.35C105.686 141.35 109.29 137.746 109.29 133.3C109.29 128.854 105.686 125.25 101.24 125.25C96.794 125.25 93.1899 128.854 93.1899 133.3C93.1899 137.746 96.794 141.35 101.24 141.35Z" fill="black"/>
<path d="M409.42 141.35C413.866 141.35 417.47 137.746 417.47 133.3C417.47 128.854 413.866 125.25 409.42 125.25C404.974 125.25 401.37 128.854 401.37 133.3C401.37 137.746 404.974 141.35 409.42 141.35Z" fill="black"/>
<path d="M443.66 141.35C448.106 141.35 451.71 137.746 451.71 133.3C451.71 128.854 448.106 125.25 443.66 125.25C439.214 125.25 435.61 128.854 435.61 133.3C435.61 137.746 439.214 141.35 443.66 141.35Z" fill="black"/>
<path d="M67 176.03C71.4458 176.03 75.05 172.426 75.05 167.98C75.05 163.534 71.4458 159.93 67 159.93C62.5541 159.93 58.95 163.534 58.95 167.98C58.95 172.426 62.5541 176.03 67 176.03Z" fill="black"/>
<path d="M101.24 176.03C105.686 176.03 109.29 172.426 109.29 167.98C109.29 163.534 105.686 159.93 101.24 159.93C96.794 159.93 93.1899 163.534 93.1899 167.98C93.1899 172.426 96.794 176.03 101.24 176.03Z" fill="black"/>
<path d="M409.42 176.03C413.866 176.03 417.47 172.426 417.47 167.98C417.47 163.534 413.866 159.93 409.42 159.93C404.974 159.93 401.37 163.534 401.37 167.98C401.37 172.426 404.974 176.03 409.42 176.03Z" fill="black"/>
<path d="M443.66 176.03C448.106 176.03 451.71 172.426 451.71 167.98C451.71 163.534 448.106 159.93 443.66 159.93C439.214 159.93 435.61 163.534 435.61 167.98C435.61 172.426 439.214 176.03 443.66 176.03Z" fill="black"/>
<path d="M67 211.02C71.4458 211.02 75.05 207.416 75.05 202.97C75.05 198.524 71.4458 194.92 67 194.92C62.5541 194.92 58.95 198.524 58.95 202.97C58.95 207.416 62.5541 211.02 67 211.02Z" fill="black"/>
<path d="M101.24 211.02C105.686 211.02 109.29 207.416 109.29 202.97C109.29 198.524 105.686 194.92 101.24 194.92C96.794 194.92 93.1899 198.524 93.1899 202.97C93.1899 207.416 96.794 211.02 101.24 211.02Z" fill="black"/>
<path d="M409.42 211.02C413.866 211.02 417.47 207.416 417.47 202.97C417.47 198.524 413.866 194.92 409.42 194.92C404.974 194.92 401.37 198.524 401.37 202.97C401.37 207.416 404.974 211.02 409.42 211.02Z" fill="black"/>
<path d="M443.66 211.02C448.106 211.02 451.71 207.416 451.71 202.97C451.71 198.524 448.106 194.92 443.66 194.92C439.214 194.92 435.61 198.524 435.61 202.97C435.61 207.416 439.214 211.02 443.66 211.02Z" fill="black"/>
<path d="M67 245.7C71.4458 245.7 75.05 242.096 75.05 237.65C75.05 233.204 71.4458 229.6 67 229.6C62.5541 229.6 58.95 233.204 58.95 237.65C58.95 242.096 62.5541 245.7 67 245.7Z" fill="black"/>
<path d="M101.24 245.7C105.686 245.7 109.29 242.096 109.29 237.65C109.29 233.204 105.686 229.6 101.24 229.6C96.794 229.6 93.1899 233.204 93.1899 237.65C93.1899 242.096 96.794 245.7 101.24 245.7Z" fill="black"/>
<path d="M409.42 245.7C413.866 245.7 417.47 242.096 417.47 237.65C417.47 233.204 413.866 229.6 409.42 229.6C404.974 229.6 401.37 233.204 401.37 237.65C401.37 242.096 404.974 245.7 409.42 245.7Z" fill="black"/>
<path d="M443.66 245.7C448.106 245.7 451.71 242.096 451.71 237.65C451.71 233.204 448.106 229.6 443.66 229.6C439.214 229.6 435.61 233.204 435.61 237.65C435.61 242.096 439.214 245.7 443.66 245.7Z" fill="black"/>
<path d="M67 280.69C71.4458 280.69 75.05 277.086 75.05 272.64C75.05 268.194 71.4458 264.59 67 264.59C62.5541 264.59 58.95 268.194 58.95 272.64C58.95 277.086 62.5541 280.69 67 280.69Z" fill="black"/>
<path d="M101.24 280.69C105.686 280.69 109.29 277.086 109.29 272.64C109.29 268.194 105.686 264.59 101.24 264.59C96.794 264.59 93.1899 268.194 93.1899 272.64C93.1899 277.086 96.794 280.69 101.24 280.69Z" fill="black"/>
<path d="M409.42 280.69C413.866 280.69 417.47 277.086 417.47 272.64C417.47 268.194 413.866 264.59 409.42 264.59C404.974 264.59 401.37 268.194 401.37 272.64C401.37 277.086 404.974 280.69 409.42 280.69Z" fill="black"/>
<path d="M443.66 280.69C448.106 280.69 451.71 277.086 451.71 272.64C451.71 268.194 448.106 264.59 443.66 264.59C439.214 264.59 435.61 268.194 435.61 272.64C435.61 277.086 439.214 280.69 443.66 280.69Z" fill="black"/>
<path d="M67 315.37C71.4458 315.37 75.05 311.766 75.05 307.32C75.05 302.874 71.4458 299.27 67 299.27C62.5541 299.27 58.95 302.874 58.95 307.32C58.95 311.766 62.5541 315.37 67 315.37Z" fill="black"/>
<path d="M101.24 315.37C105.686 315.37 109.29 311.766 109.29 307.32C109.29 302.874 105.686 299.27 101.24 299.27C96.794 299.27 93.1899 302.874 93.1899 307.32C93.1899 311.766 96.794 315.37 101.24 315.37Z" fill="black"/>
<path d="M409.42 315.37C413.866 315.37 417.47 311.766 417.47 307.32C417.47 302.874 413.866 299.27 409.42 299.27C404.974 299.27 401.37 302.874 401.37 307.32C401.37 311.766 404.974 315.37 409.42 315.37Z" fill="black"/>
<path d="M443.66 315.37C448.106 315.37 451.71 311.766 451.71 307.32C451.71 302.874 448.106 299.27 443.66 299.27C439.214 299.27 435.61 302.874 435.61 307.32C435.61 311.766 439.214 315.37 443.66 315.37Z" fill="black"/>
<path d="M67 350.36C71.4458 350.36 75.05 346.756 75.05 342.31C75.05 337.864 71.4458 334.26 67 334.26C62.5541 334.26 58.95 337.864 58.95 342.31C58.95 346.756 62.5541 350.36 67 350.36Z" fill="black"/>
<path d="M101.24 350.36C105.686 350.36 109.29 346.756 109.29 342.31C109.29 337.864 105.686 334.26 101.24 334.26C96.794 334.26 93.1899 337.864 93.1899 342.31C93.1899 346.756 96.794 350.36 101.24 350.36Z" fill="black"/>
<path d="M409.42 350.36C413.866 350.36 417.47 346.756 417.47 342.31C417.47 337.864 413.866 334.26 409.42 334.26C404.974 334.26 401.37 337.864 401.37 342.31C401.37 346.756 404.974 350.36 409.42 350.36Z" fill="black"/>
<path d="M443.66 350.36C448.106 350.36 451.71 346.756 451.71 342.31C451.71 337.864 448.106 334.26 443.66 334.26C439.214 334.26 435.61 337.864 435.61 342.31C435.61 346.756 439.214 350.36 443.66 350.36Z" fill="black"/>
<path d="M67 385.03C71.4458 385.03 75.05 381.426 75.05 376.98C75.05 372.534 71.4458 368.93 67 368.93C62.5541 368.93 58.95 372.534 58.95 376.98C58.95 381.426 62.5541 385.03 67 385.03Z" fill="black"/>
<path d="M101.24 385.03C105.686 385.03 109.29 381.426 109.29 376.98C109.29 372.534 105.686 368.93 101.24 368.93C96.794 368.93 93.1899 372.534 93.1899 376.98C93.1899 381.426 96.794 385.03 101.24 385.03Z" fill="black"/>
<path d="M409.42 385.03C413.866 385.03 417.47 381.426 417.47 376.98C417.47 372.534 413.866 368.93 409.42 368.93C404.974 368.93 401.37 372.534 401.37 376.98C401.37 381.426 404.974 385.03 409.42 385.03Z" fill="black"/>
<path d="M443.66 385.03C448.106 385.03 451.71 381.426 451.71 376.98C451.71 372.534 448.106 368.93 443.66 368.93C439.214 368.93 435.61 372.534 435.61 376.98C435.61 381.426 439.214 385.03 443.66 385.03Z" fill="black"/>
<path d="M67 420.03C71.4458 420.03 75.05 416.426 75.05 411.98C75.05 407.534 71.4458 403.93 67 403.93C62.5541 403.93 58.95 407.534 58.95 411.98C58.95 416.426 62.5541 420.03 67 420.03Z" fill="black"/>
<path d="M101.24 420.03C105.686 420.03 109.29 416.426 109.29 411.98C109.29 407.534 105.686 403.93 101.24 403.93C96.794 403.93 93.1899 407.534 93.1899 411.98C93.1899 416.426 96.794 420.03 101.24 420.03Z" fill="black"/>
<path d="M135.49 420.03C139.936 420.03 143.54 416.426 143.54 411.98C143.54 407.534 139.936 403.93 135.49 403.93C131.044 403.93 127.44 407.534 127.44 411.98C127.44 416.426 131.044 420.03 135.49 420.03Z" fill="black"/>
<path d="M169.73 420.03C174.176 420.03 177.78 416.426 177.78 411.98C177.78 407.534 174.176 403.93 169.73 403.93C165.284 403.93 161.68 407.534 161.68 411.98C161.68 416.426 165.284 420.03 169.73 420.03Z" fill="black"/>
<path d="M203.97 420.03C208.416 420.03 212.02 416.426 212.02 411.98C212.02 407.534 208.416 403.93 203.97 403.93C199.524 403.93 195.92 407.534 195.92 411.98C195.92 416.426 199.524 420.03 203.97 420.03Z" fill="black"/>
<path d="M238.21 420.03C242.656 420.03 246.26 416.426 246.26 411.98C246.26 407.534 242.656 403.93 238.21 403.93C233.764 403.93 230.16 407.534 230.16 411.98C230.16 416.426 233.764 420.03 238.21 420.03Z" fill="black"/>
<path d="M272.45 420.03C276.896 420.03 280.5 416.426 280.5 411.98C280.5 407.534 276.896 403.93 272.45 403.93C268.004 403.93 264.4 407.534 264.4 411.98C264.4 416.426 268.004 420.03 272.45 420.03Z" fill="black"/>
<path d="M306.69 420.03C311.136 420.03 314.74 416.426 314.74 411.98C314.74 407.534 311.136 403.93 306.69 403.93C302.244 403.93 298.64 407.534 298.64 411.98C298.64 416.426 302.244 420.03 306.69 420.03Z" fill="black"/>
<path d="M340.94 420.03C345.386 420.03 348.99 416.426 348.99 411.98C348.99 407.534 345.386 403.93 340.94 403.93C336.494 403.93 332.89 407.534 332.89 411.98C332.89 416.426 336.494 420.03 340.94 420.03Z" fill="black"/>
<path d="M375.18 420.03C379.626 420.03 383.23 416.426 383.23 411.98C383.23 407.534 379.626 403.93 375.18 403.93C370.734 403.93 367.13 407.534 367.13 411.98C367.13 416.426 370.734 420.03 375.18 420.03Z" fill="black"/>
<path d="M409.42 420.03C413.866 420.03 417.47 416.426 417.47 411.98C417.47 407.534 413.866 403.93 409.42 403.93C404.974 403.93 401.37 407.534 401.37 411.98C401.37 416.426 404.974 420.03 409.42 420.03Z" fill="black"/>
<path d="M443.66 420.03C448.106 420.03 451.71 416.426 451.71 411.98C451.71 407.534 448.106 403.93 443.66 403.93C439.214 403.93 435.61 407.534 435.61 411.98C435.61 416.426 439.214 420.03 443.66 420.03Z" fill="black"/>
<path d="M67 454.7C71.4458 454.7 75.05 451.096 75.05 446.65C75.05 442.204 71.4458 438.6 67 438.6C62.5541 438.6 58.95 442.204 58.95 446.65C58.95 451.096 62.5541 454.7 67 454.7Z" fill="black"/>
<path d="M101.24 454.7C105.686 454.7 109.29 451.096 109.29 446.65C109.29 442.204 105.686 438.6 101.24 438.6C96.794 438.6 93.1899 442.204 93.1899 446.65C93.1899 451.096 96.794 454.7 101.24 454.7Z" fill="black"/>
<path d="M135.49 454.7C139.936 454.7 143.54 451.096 143.54 446.65C143.54 442.204 139.936 438.6 135.49 438.6C131.044 438.6 127.44 442.204 127.44 446.65C127.44 451.096 131.044 454.7 135.49 454.7Z" fill="black"/>
<path d="M169.73 454.7C174.176 454.7 177.78 451.096 177.78 446.65C177.78 442.204 174.176 438.6 169.73 438.6C165.284 438.6 161.68 442.204 161.68 446.65C161.68 451.096 165.284 454.7 169.73 454.7Z" fill="black"/>
<path d="M203.97 454.7C208.416 454.7 212.02 451.096 212.02 446.65C212.02 442.204 208.416 438.6 203.97 438.6C199.524 438.6 195.92 442.204 195.92 446.65C195.92 451.096 199.524 454.7 203.97 454.7Z" fill="black"/>
<path d="M238.21 454.7C242.656 454.7 246.26 451.096 246.26 446.65C246.26 442.204 242.656 438.6 238.21 438.6C233.764 438.6 230.16 442.204 230.16 446.65C230.16 451.096 233.764 454.7 238.21 454.7Z" fill="black"/>
<path d="M272.45 454.7C276.896 454.7 280.5 451.096 280.5 446.65C280.5 442.204 276.896 438.6 272.45 438.6C268.004 438.6 264.4 442.204 264.4 446.65C264.4 451.096 268.004 454.7 272.45 454.7Z" fill="black"/>
<path d="M306.69 454.7C311.136 454.7 314.74 451.096 314.74 446.65C314.74 442.204 311.136 438.6 306.69 438.6C302.244 438.6 298.64 442.204 298.64 446.65C298.64 451.096 302.244 454.7 306.69 454.7Z" fill="black"/>
<path d="M340.94 454.7C345.386 454.7 348.99 451.096 348.99 446.65C348.99 442.204 345.386 438.6 340.94 438.6C336.494 438.6 332.89 442.204 332.89 446.65C332.89 451.096 336.494 454.7 340.94 454.7Z" fill="black"/>
<path d="M375.18 454.7C379.626 454.7 383.23 451.096 383.23 446.65C383.23 442.204 379.626 438.6 375.18 438.6C370.734 438.6 367.13 442.204 367.13 446.65C367.13 451.096 370.734 454.7 375.18 454.7Z" fill="black"/>
<path d="M409.42 454.7C413.866 454.7 417.47 451.096 417.47 446.65C417.47 442.204 413.866 438.6 409.42 438.6C404.974 438.6 401.37 442.204 401.37 446.65C401.37 451.096 404.974 454.7 409.42 454.7Z" fill="black"/>
<path d="M443.66 454.7C448.106 454.7 451.71 451.096 451.71 446.65C451.71 442.204 448.106 438.6 443.66 438.6C439.214 438.6 435.61 442.204 435.61 446.65C435.61 451.096 439.214 454.7 443.66 454.7Z" fill="black"/>
<path d="M372.397 122.206H139.604C130.011 122.206 122.207 130.01 122.207 139.603V236C122.207 240.142 125.565 243.5 129.707 243.5C133.849 243.5 137.207 240.142 137.207 236V139.603C137.207 138.281 138.283 137.206 139.604 137.206H372.397C373.719 137.206 374.794 138.281 374.794 139.603V236C374.794 240.142 378.152 243.5 382.294 243.5C386.436 243.5 389.794 240.142 389.794 236V139.603C389.794 130.01 381.99 122.206 372.397 122.206Z" fill="black"/>
<path d="M382.294 268.5C378.152 268.5 374.794 271.858 374.794 276V321.787C374.794 323.596 374.057 325.364 372.773 326.637L326.191 372.815C324.904 374.091 323.196 374.794 321.383 374.794H139.603C138.281 374.794 137.206 373.719 137.206 372.397V276C137.206 271.858 133.848 268.5 129.706 268.5C125.564 268.5 122.206 271.858 122.206 276V372.397C122.206 381.99 130.011 389.794 139.603 389.794H321.383C327.178 389.794 332.636 387.547 336.751 383.467L383.333 337.289C387.439 333.219 389.794 327.568 389.794 321.787V276C389.794 271.858 386.437 268.5 382.294 268.5Z" fill="black"/>
<path d="M504.5 146.815C508.642 146.815 512 143.457 512 139.315C512 135.173 508.642 131.815 504.5 131.815H482.921V88.473H504.5C508.642 88.473 512 85.115 512 80.973C512 76.831 508.642 73.473 504.5 73.473H482.921V58.72C482.921 42.376 469.624 29.079 453.28 29.079H438.527V7.5C438.527 3.358 435.169 0 431.027 0C426.885 0 423.527 3.358 423.527 7.5V29.079H380.185V7.5C380.185 3.358 376.827 0 372.685 0C368.543 0 365.185 3.358 365.185 7.5V29.079H321.842V7.5C321.842 3.358 318.484 0 314.342 0C310.2 0 306.842 3.358 306.842 7.5V29.079H263.5V7.5C263.5 3.358 260.142 0 256 0C251.858 0 248.5 3.358 248.5 7.5V29.079H205.158V7.5C205.158 3.358 201.8 0 197.658 0C193.516 0 190.158 3.358 190.158 7.5V29.079H146.815V7.5C146.815 3.358 143.457 0 139.315 0C135.173 0 131.815 3.358 131.815 7.5V29.079H88.473V7.5C88.473 3.358 85.115 0 80.973 0C76.831 0 73.473 3.358 73.473 7.5V29.079H58.72C42.376 29.079 29.079 42.376 29.079 58.72V73.473H7.5C3.358 73.473 0 76.831 0 80.973C0 85.115 3.358 88.473 7.5 88.473H29.079V131.815H7.5C3.358 131.815 0 135.173 0 139.315C0 143.457 3.358 146.815 7.5 146.815H29.079V190.158H7.5C3.358 190.158 0 193.516 0 197.658C0 201.8 3.358 205.158 7.5 205.158H29.079V248.5H7.5C3.358 248.5 0 251.858 0 256C0 260.142 3.358 263.5 7.5 263.5H29.079V306.842H7.5C3.358 306.842 0 310.2 0 314.342C0 318.484 3.358 321.842 7.5 321.842H29.079V365.185H7.5C3.358 365.185 0 368.543 0 372.685C0 376.827 3.358 380.185 7.5 380.185H29.079V423.527H7.5C3.358 423.527 0 426.885 0 431.027C0 435.169 3.358 438.527 7.5 438.527H29.079V453.28C29.079 469.624 42.376 482.921 58.72 482.921H73.473V504.5C73.473 508.642 76.831 512 80.973 512C85.115 512 88.473 508.642 88.473 504.5V482.921H131.815V504.5C131.815 508.642 135.173 512 139.315 512C143.457 512 146.815 508.642 146.815 504.5V482.921H190.158V504.5C190.158 508.642 193.516 512 197.658 512C201.8 512 205.158 508.642 205.158 504.5V482.921H248.5V504.5C248.5 508.642 251.858 512 256 512C260.142 512 263.5 508.642 263.5 504.5V482.921H306.842V504.5C306.842 508.642 310.2 512 314.342 512C318.484 512 321.842 508.642 321.842 504.5V482.921H365.185V504.5C365.185 508.642 368.543 512 372.685 512C376.827 512 380.185 508.642 380.185 504.5V482.921H423.527V504.5C423.527 508.642 426.885 512 431.027 512C435.169 512 438.527 508.642 438.527 504.5V482.921H453.28C469.624 482.921 482.921 469.624 482.921 453.28V438.527H504.5C508.642 438.527 512 435.169 512 431.027C512 426.885 508.642 423.527 504.5 423.527H482.921V380.185H504.5C508.642 380.185 512 376.827 512 372.685C512 368.543 508.642 365.185 504.5 365.185H482.921V321.842H504.5C508.642 321.842 512 318.484 512 314.342C512 310.2 508.642 306.842 504.5 306.842H482.921V263.5H504.5C508.642 263.5 512 260.142 512 256C512 251.858 508.642 248.5 504.5 248.5H482.921V205.158H504.5C508.642 205.158 512 201.8 512 197.658C512 193.516 508.642 190.158 504.5 190.158H482.921V146.815H504.5ZM467.921 80.963C467.921 80.966 467.921 80.969 467.921 80.973C467.921 80.977 467.921 80.979 467.921 80.983V139.306C467.921 139.309 467.921 139.312 467.921 139.316C467.921 139.32 467.921 139.322 467.921 139.326V197.649C467.921 197.652 467.921 197.655 467.921 197.659C467.921 197.663 467.921 197.665 467.921 197.669V255.992C467.921 255.995 467.921 255.998 467.921 256.002C467.921 256.006 467.921 256.008 467.921 256.012V314.335C467.921 314.338 467.921 314.341 467.921 314.345C467.921 314.349 467.921 314.351 467.921 314.355V372.678C467.921 372.681 467.921 372.684 467.921 372.688C467.921 372.692 467.921 372.694 467.921 372.698V431.021C467.921 431.024 467.921 431.027 467.921 431.031C467.921 431.035 467.921 431.037 467.921 431.041V453.284C467.921 461.357 461.353 467.925 453.28 467.925H58.72C50.647 467.925 44.079 461.357 44.079 453.284V58.72C44.079 50.647 50.647 44.079 58.72 44.079H453.28C461.353 44.079 467.921 50.647 467.921 58.72V80.963Z" fill="#1740D3"/>
</svg>
