<svg width="512" height="512" viewBox="0 0 512 512" fill="none" xmlns="http://www.w3.org/2000/svg">
<g clip-path="url(#clip0)">
<path d="M402.238 352.301C396.91 350.871 391.437 354.027 390.008 359.363C388.578 364.688 391.738 370.172 397.07 371.602C402.398 373.031 407.883 369.863 409.312 364.539C410.738 359.203 407.574 353.73 402.238 352.301V352.301Z" fill="black"/>
<path d="M114.926 371.602C120.262 370.172 123.418 364.688 121.988 359.363C120.559 354.027 115.086 350.871 109.762 352.301C104.426 353.727 101.258 359.203 102.688 364.539C104.113 369.863 109.602 373.031 114.926 371.602V371.602Z" fill="black"/>
<path d="M500.555 339.766C508.086 314.98 511.77 291.676 511.77 268.777C511.77 202.348 484.684 139.582 435.496 92.0391C387.559 45.7031 323.281 19 256 19C118.172 19 0.23051 130.523 0.23051 268.777C0.23051 291.68 3.9141 314.988 11.4493 339.781C2.30082 347.004 -2.14449 359.262 1.00785 371.094L26.875 467.59C31.125 483.504 47.4805 493.098 63.5821 488.797L94.1954 480.59C101.211 490.785 114.109 495.937 126.656 492.586L165.262 482.234C181.223 477.957 190.731 461.488 186.453 445.531L150.254 310.422C145.973 294.457 129.496 284.949 113.539 289.23L74.9454 299.57C70.8789 300.66 67.2344 302.543 64.1289 305.004C62.1368 295.703 60.8946 286.477 60.4141 277.371C71.5039 273.883 79.7852 264.203 80.961 252.164C89.2032 167.672 167.727 98.9297 256 98.9297C344.273 98.9297 422.797 167.672 431.039 252.164C432.211 264.203 440.496 273.883 451.586 277.371C451.105 286.477 449.863 295.703 447.871 305.004C444.762 302.543 441.121 300.66 437.055 299.57L398.461 289.23C382.492 284.953 366.023 294.457 361.746 310.422L325.547 445.531C321.27 461.492 330.777 477.957 346.738 482.234L385.352 492.586C397.848 495.926 410.762 490.824 417.805 480.59L448.426 488.801C464.582 493.113 480.895 483.43 485.121 467.598L510.992 371.082C514.148 359.246 509.684 346.973 500.555 339.766V339.766ZM80.1133 318.871L118.711 308.527C124.035 307.098 129.523 310.27 130.953 315.59L167.148 450.699C168.574 456.02 165.406 461.504 160.086 462.934L150.434 465.52L132.34 397.961C130.914 392.633 125.438 389.469 120.106 390.895C114.773 392.324 111.609 397.801 113.039 403.133L131.137 470.695L121.488 473.281C116.172 474.703 110.68 471.531 109.25 466.211C109.25 466.207 109.25 466.203 109.25 466.203L73.043 331.102C71.6172 325.785 74.7891 320.297 80.1133 318.871ZM87.3633 461.73L58.418 469.492C53.0938 470.914 47.6094 467.777 46.1758 462.422L20.3125 365.93C18.9688 360.883 21.7579 355.605 26.7461 353.883C26.9766 353.801 27.2188 353.73 27.3829 353.688L55.9219 346.035C58.836 353.309 53.5157 336.637 87.3633 461.73ZM20.4766 278.766H40.4766C41.3477 294.688 44.2891 310.887 49.2579 327.133L30.0547 332.285C24.5157 313.648 21.3594 295.992 20.4766 278.766ZM450.926 250.219C441.481 153.422 353.621 78.9453 256 78.9453C158.324 78.9453 70.5118 153.465 61.0704 250.223C60.6016 255.023 56.3008 258.785 51.2696 258.785H20.4571C26.043 138.641 131.621 38.9805 256 38.9805C380.375 38.9805 485.957 138.641 491.539 258.785H460.723C455.699 258.785 451.395 255.023 450.926 250.219ZM491.52 278.766C490.637 295.992 487.481 313.648 481.945 332.285L462.738 327.137C467.707 310.883 470.648 294.688 471.52 278.766H491.52ZM402.75 466.207C402.75 466.207 402.75 466.207 402.746 466.207C401.32 471.527 395.828 474.699 390.52 473.281L380.863 470.691L398.961 403.133C400.391 397.801 397.227 392.324 391.895 390.895C386.566 389.469 381.086 392.633 379.66 397.961L361.563 465.52L351.914 462.93C346.594 461.504 343.422 456.016 344.848 450.699L381.047 315.59C382.242 311.133 386.289 308.184 390.703 308.184C391.555 308.184 392.426 308.297 393.289 308.527L431.883 318.867C437.207 320.293 440.383 325.781 438.957 331.098L402.75 466.207ZM491.688 365.918L465.82 462.43C464.391 467.781 458.895 470.914 453.59 469.496L424.637 461.73C458.496 336.59 453.16 353.316 456.074 346.035C486.477 354.191 484.703 353.688 485.328 353.91C490.238 355.605 493.031 360.887 491.688 365.918Z" fill="#1740D3"/>
</g>
<defs>
<clipPath id="clip0">
<rect width="512" height="512" fill="white"/>
</clipPath>
</defs>
</svg>
