<svg width="512" height="512" viewBox="0 0 512 512" fill="none" xmlns="http://www.w3.org/2000/svg">
<g clip-path="url(#clip0)">
<path d="M53.76 375.612C43.346 381.407 35.8304 391.294 33.0327 402.878C30.235 414.463 32.4101 426.69 39.0315 436.599L59.5115 467.413C67.4287 479.302 80.7776 486.432 95.0613 486.4H187.733C187.733 500.538 199.195 512 213.333 512H298.667C312.805 512 324.267 500.538 324.267 486.4V469.333C324.267 455.195 312.805 443.733 298.667 443.733H213.333C199.195 443.733 187.733 455.195 187.733 469.333H95.0613C86.4949 469.35 78.488 465.081 73.728 457.958L53.248 427.136C49.2659 421.19 47.954 413.85 49.6304 406.893C51.3067 399.936 55.8183 393.999 62.0715 390.519L67.7973 387.328C79.1637 404.915 91.0848 421.888 102.912 438.178C108.229 445.51 116.243 450.429 125.188 451.85C134.133 453.271 143.277 451.079 150.605 445.756C156.96 441.075 161.483 434.324 163.396 426.667H197.811C202.413 426.666 206.929 425.425 210.884 423.074L226.611 413.687C246.598 401.702 253.329 375.933 241.758 355.703L160.299 214.647C148.547 194.429 122.744 187.384 102.349 198.827L86.9888 207.496C83.1191 209.68 79.8842 212.832 77.6021 216.644L71.296 227.2C68.3659 211.089 67.6339 194.655 69.12 178.347C75.9467 106.726 112.239 79.36 212.898 69.9733C224.785 68.864 237.286 68.2666 250.061 68.2666H261.973C274.773 68.2666 287.249 68.8298 299.127 69.9733C399.761 79.36 436.053 106.726 442.923 178.347C444.381 194.682 443.614 211.139 440.644 227.268L434.347 216.636C432.06 212.83 428.826 209.681 424.96 207.496L409.651 198.827C389.261 187.381 363.459 194.418 351.701 214.63L270.242 355.738C258.671 375.967 265.402 401.736 285.389 413.722L301.107 423.108C305.07 425.445 309.588 426.674 314.189 426.667H348.612C351.862 439.454 362.224 449.202 375.186 451.666C388.148 454.13 401.364 448.864 409.079 438.161C463.479 363.204 520.696 274.628 510.848 171.81C502.895 88.977 457.088 38.7754 366.694 13.824C331.716 4.42402 295.632 -0.225707 259.413 -3.77368e-05H252.587C216.365 -0.225128 180.278 4.42459 145.297 13.824C54.9205 38.7754 9.10505 88.977 1.15199 171.819C-5.97335 246.221 22.0672 313.173 58.7093 372.907L53.76 375.612ZM204.8 469.333C204.8 464.62 208.62 460.8 213.333 460.8H298.667C303.38 460.8 307.2 464.62 307.2 469.333V486.4C307.2 491.113 303.38 494.933 298.667 494.933H213.333C208.62 494.933 204.8 491.113 204.8 486.4V469.333ZM110.754 213.7C122.987 206.833 138.466 211.055 145.519 223.181L226.987 364.271C233.928 376.406 229.889 391.864 217.899 399.053L205.594 406.366L98.9867 220.356L110.754 213.7ZM87.168 234.027L187.776 409.6H163.524C162.491 405.464 160.684 401.561 158.199 398.097C125.773 353.51 92.2283 303.735 76.8853 251.238L87.168 234.027ZM294.11 399.053C282.117 391.867 278.074 376.408 285.013 364.271L366.473 223.189C373.522 211.059 389.006 206.837 401.237 213.709L412.996 220.356L306.398 406.383L294.11 399.053ZM353.783 398.114C351.301 401.571 349.5 405.469 348.476 409.6H324.224L424.832 234.027L435.115 251.238C419.772 303.787 386.185 353.519 353.783 398.114ZM18.1333 173.448C25.4293 97.5701 66.048 53.4101 149.845 30.2762C183.345 21.2856 217.902 16.8426 252.587 17.0666H259.413C294.095 16.842 328.649 21.285 362.146 30.2762C445.952 53.4101 486.571 97.5701 493.867 173.44C503.142 270.327 447.787 355.712 395.273 428.126C389.618 435.532 379.159 437.226 371.456 431.983C363.852 426.433 362.132 415.796 367.599 408.132C416.538 340.787 468.062 261.803 459.947 176.64C451.174 85.2224 392.533 61.5253 300.715 52.9066C288.282 51.7888 275.243 51.2 261.973 51.2H250.027C236.723 51.2 223.684 51.7888 211.277 52.9493C119.518 61.5594 60.8597 85.2565 52.0533 176.683C43.9381 261.803 95.4709 340.787 144.384 408.124C149.857 415.752 148.18 426.363 140.621 431.932C132.924 437.265 122.392 435.591 116.727 428.134C64.1707 355.712 8.85759 270.327 18.1333 173.448V173.448Z" fill="#0172C4"/>
</g>
<defs>
<clipPath id="clip0">
<rect width="512" height="512" fill="white"/>
</clipPath>
</defs>
</svg>
