<svg width="512" height="512" viewBox="0 0 512 512" fill="none" xmlns="http://www.w3.org/2000/svg">
<g clip-path="url(#clip0)">
<path d="M476.962 188.262L511.469 35.442C513.399 26.9 509.964 18.157 502.72 13.169H502.719C492.566 6.18098 513.608 10.782 21.681 9.46098C7.00399 9.46098 -2.37801 22.583 0.525996 35.442L35.033 188.262C36.062 192.821 38.481 196.724 41.774 199.607C37.243 204.712 34.484 211.425 34.484 218.772V468.963C34.484 487.634 49.673 502.822 68.404 502.822H89.752C93.895 502.822 97.252 499.465 97.252 495.322C97.252 491.18 93.895 487.822 89.752 487.822H68.343C57.945 487.822 49.485 479.362 49.485 468.902V218.772C49.485 211.103 55.723 204.863 63.393 204.863H99.2C100.299 215.545 109.035 222.605 118.56 222.605C129.034 222.605 382.291 222.605 393.436 222.605C402.976 222.605 411.726 215.513 412.795 204.863H448.602C456.271 204.863 462.511 211.102 462.511 218.772V244.127C462.511 248.27 465.868 251.627 470.011 251.627C474.154 251.627 477.511 248.27 477.511 244.127V218.772C477.511 211.425 474.752 204.713 470.221 199.607C473.514 196.725 475.934 192.821 476.962 188.262ZM397.865 203.238C397.826 205.797 395.444 207.605 393.006 207.605H118.991C116.674 207.605 114.29 206.039 114.13 203.121C114.157 200.695 116.173 198.735 118.56 198.735C306.055 198.758 393.536 198.691 394.221 198.814C397.894 199.482 397.918 203.401 397.865 203.238ZM462.331 184.957C461.679 187.846 459.155 189.862 456.194 189.862C446.083 189.862 417.738 189.862 407.595 189.862C404.108 186.153 398.947 183.733 393.436 183.733H118.56C113.053 183.733 107.917 186.123 104.401 189.862H63.393H55.803C52.842 189.862 50.319 187.845 49.666 184.957L15.159 32.138C14.354 28.573 16.74 24.462 21.682 24.462C519.48 24.861 491.269 23.5 494.215 25.526C496.379 27.017 497.408 29.612 496.838 32.138L462.331 184.957Z" fill="#0172C4"/>
<path d="M430.836 229.835C396.886 229.835 117.786 229.835 82.629 229.835C73.846 229.835 66.699 236.981 66.699 245.765V261.63V285.433V309.235V333.038V351.467C66.699 359.487 73.224 366.014 81.246 366.014C102.141 366.012 411.117 366.012 428.641 366.012C437.826 366.012 445.299 358.539 445.299 349.354V333.037C445.299 320.685 445.299 252.871 445.299 244.298C445.298 236.322 438.811 229.835 430.836 229.835ZM379.189 244.834H397.243V254.127H379.189V244.834ZM379.189 269.128C395.457 269.128 414.03 269.128 430.297 269.128V277.93C417.394 277.93 384.046 277.93 379.189 277.93V269.128ZM380.716 292.931V301.732C374.402 301.732 368.976 301.732 362.662 301.732V292.931C368.976 292.931 374.401 292.931 380.716 292.931ZM346.135 244.834H364.189V254.127H346.135V244.834ZM346.135 269.128H364.189V277.93C357.875 277.93 352.449 277.93 346.135 277.93V269.128ZM347.661 292.931V301.732C341.347 301.732 335.921 301.732 329.607 301.732V292.931C335.922 292.931 341.347 292.931 347.661 292.931ZM313.08 244.834H331.135V254.127H313.08V244.834ZM313.08 269.128H331.135V277.93C324.821 277.93 319.395 277.93 313.08 277.93V269.128ZM296.552 301.733V292.932C302.867 292.932 308.293 292.932 314.607 292.932V301.733C308.293 301.733 302.866 301.733 296.552 301.733ZM298.079 316.733V325.535H280.025V316.733C286.34 316.733 291.765 316.733 298.079 316.733ZM280.025 244.834H298.079V254.127H280.025V244.834ZM280.025 269.128H298.079V277.93C291.765 277.93 286.339 277.93 280.025 277.93V269.128ZM281.553 292.931V301.732H272.527H263.5V292.931H272.526H281.553ZM230.444 301.733V292.932C236.758 292.932 242.183 292.932 248.498 292.932V301.733C242.184 301.733 236.759 301.733 230.444 301.733ZM231.97 316.733V325.535H213.916V316.733C220.231 316.733 225.657 316.733 231.97 316.733ZM246.971 316.733C253.285 316.733 258.711 316.733 265.025 316.733V325.535H246.971V316.733ZM246.971 244.834H265.025V254.127H246.971V244.834ZM246.971 269.128H265.025V277.93C258.711 277.93 253.285 277.93 246.971 277.93V269.128ZM213.918 244.834H231.972V254.127H213.918V244.834ZM213.918 269.128H231.972V277.93C225.658 277.93 220.232 277.93 213.918 277.93V269.128ZM215.444 292.931V301.732C209.13 301.732 203.704 301.732 197.389 301.732V292.931H206.416H215.444ZM165.861 325.536H147.808V316.734H156.834H165.86V325.536H165.861ZM164.336 301.733V292.932C170.65 292.932 176.075 292.932 182.39 292.932V301.733C176.075 301.733 170.649 301.733 164.336 301.733ZM180.862 316.733C187.176 316.733 192.602 316.733 198.917 316.733V325.535H180.862V316.733ZM180.862 244.834H198.917V254.127H180.862V244.834ZM180.862 269.128H198.917V277.93C192.603 277.93 187.177 277.93 180.862 277.93V269.128ZM147.808 244.834H165.862V254.127H147.808V244.834ZM147.808 269.128H165.862V277.93C159.548 277.93 154.122 277.93 147.808 277.93V269.128ZM114.755 244.834H132.809V254.127H114.755V244.834ZM114.755 269.128H132.809V277.93C126.495 277.93 121.07 277.93 114.755 277.93V269.128ZM81.699 245.763C81.699 245.251 82.116 244.834 82.628 244.834H99.754V254.127H81.699V245.763ZM81.699 269.128H99.754V277.93H81.699V269.128ZM81.699 292.931H107.254H116.28V301.732H81.699V292.931ZM99.754 351.01H81.699V340.536H99.754V351.01ZM81.699 325.536V316.734H123.781H132.807V325.536H107.254H81.699ZM132.808 351.01H114.754V340.536H132.808V351.01ZM131.281 301.733V292.932H140.307H149.333V301.733H140.307H131.281ZM165.862 351.01H147.808V340.536H165.862V351.01ZM331.135 351.01H180.862V340.536C207.565 340.536 291.28 340.536 331.134 340.536V351.01H331.135ZM331.135 325.536H313.08V316.734C319.394 316.734 324.82 316.734 331.135 316.734V325.536ZM364.188 351.01H346.134V340.536H364.188V351.01ZM364.188 325.536H346.134V316.734C352.448 316.734 357.873 316.734 364.188 316.734V325.536ZM397.242 351.01H379.188V340.536H397.242V351.01ZM428.641 351.01H412.243V340.536H430.298V349.353C430.298 350.267 429.555 351.01 428.641 351.01ZM430.298 325.536C414.031 325.536 395.457 325.536 379.19 325.536V316.734H388.216H430.298V325.536ZM430.298 301.733H395.717V292.932H430.298V301.733ZM430.298 254.128H412.243V244.835H430.298V254.128Z" fill="#0C0C0C"/>
<path d="M320.675 375.045H191.322C183.493 375.045 177.123 381.414 177.123 389.244V445.483C177.123 453.311 183.492 459.681 191.322 459.681H320.675C328.504 459.681 334.874 453.312 334.874 445.483V389.244C334.874 381.414 328.504 375.045 320.675 375.045ZM319.873 444.68H192.124V390.045H319.873V444.68Z" fill="#0172C4"/>
<path d="M305.579 162.281H206.417C202.274 162.281 198.917 165.638 198.917 169.781C198.917 173.924 202.274 177.281 206.417 177.281H305.579C309.722 177.281 313.079 173.924 313.079 169.781C313.08 165.638 309.723 162.281 305.579 162.281Z" fill="#0172C4"/>
<path d="M467.806 37.043H44.191C36.48 37.043 30.777 44.197 32.475 51.702L53.911 146.636C55.156 152.151 59.975 156.002 65.628 156.002H446.369C452.022 156.002 456.841 152.15 458.087 146.636L479.524 51.703C481.223 44.182 475.501 37.043 467.806 37.043ZM461.048 65.414H124.755C120.612 65.414 117.255 68.771 117.255 72.914C117.255 77.057 120.612 80.414 124.755 80.414H457.662L443.98 141H68.017L54.336 80.415H89.753C93.896 80.415 97.253 77.058 97.253 72.915C97.253 68.772 93.896 65.415 89.753 65.415H50.949L47.929 52.044H464.067L461.048 65.414Z" fill="#0172C4"/>
<path d="M470.012 271.628C465.869 271.628 462.512 274.985 462.512 279.128V468.962C462.512 479.36 454.053 487.821 443.592 487.821H313.08V486.847C313.08 476.094 304.332 467.346 293.579 467.346H218.418C207.666 467.346 198.917 476.094 198.917 486.847V487.821H124.755C120.612 487.821 117.255 491.179 117.255 495.321C117.255 499.464 120.612 502.821 124.755 502.821C142.175 502.821 426.237 502.821 443.654 502.821C462.324 502.821 477.512 487.632 477.512 468.901V279.129C477.513 274.987 474.154 271.628 470.012 271.628ZM298.079 487.822H213.918V486.848C213.918 484.409 215.979 482.348 218.418 482.348H293.579C296.018 482.348 298.079 484.409 298.079 486.848V487.822Z" fill="#0172C4"/>
</g>
<defs>
<clipPath id="clip0">
<rect width="512" height="512" fill="white"/>
</clipPath>
</defs>
</svg>
