<svg width="512" height="512" viewBox="0 0 512 512" fill="none" xmlns="http://www.w3.org/2000/svg">
<path d="M472 216C478.365 216 484.47 213.471 488.971 208.971C493.471 204.47 496 198.365 496 192C496 185.635 493.471 179.53 488.971 175.029C484.47 170.529 478.365 168 472 168H448V152H472C478.365 152 484.47 149.471 488.971 144.971C493.471 140.47 496 134.365 496 128C496 121.635 493.471 115.53 488.971 111.029C484.47 106.529 478.365 104 472 104H448V88C447.984 85.8791 447.154 83.8455 445.68 82.32L429.68 66.32C428.155 64.8464 426.121 64.0158 424 64H408V40C408 33.6348 405.471 27.5303 400.971 23.0294C396.47 18.5286 390.365 16 384 16C377.635 16 371.53 18.5286 367.029 23.0294C362.529 27.5303 360 33.6348 360 40V64H344V40C344 33.6348 341.471 27.5303 336.971 23.0294C332.47 18.5286 326.365 16 320 16C313.635 16 307.53 18.5286 303.029 23.0294C298.529 27.5303 296 33.6348 296 40V64H280V40C280 33.6348 277.471 27.5303 272.971 23.0294C268.47 18.5286 262.365 16 256 16C249.635 16 243.53 18.5286 239.029 23.0294C234.529 27.5303 232 33.6348 232 40V64H216V40C216 33.6348 213.471 27.5303 208.971 23.0294C204.47 18.5286 198.365 16 192 16C185.635 16 179.53 18.5286 175.029 23.0294C170.529 27.5303 168 33.6348 168 40V64H152V40C152 33.6348 149.471 27.5303 144.971 23.0294C140.47 18.5286 134.365 16 128 16C121.635 16 115.53 18.5286 111.029 23.0294C106.529 27.5303 104 33.6348 104 40V64H88C85.8791 64.0158 83.8455 64.8464 82.32 66.32L66.32 82.32C64.8464 83.8455 64.0158 85.8791 64 88V104H40C33.6348 104 27.5303 106.529 23.0294 111.029C18.5286 115.53 16 121.635 16 128C16 134.365 18.5286 140.47 23.0294 144.971C27.5303 149.471 33.6348 152 40 152H64V168H40C33.6348 168 27.5303 170.529 23.0294 175.029C18.5286 179.53 16 185.635 16 192C16 198.365 18.5286 204.47 23.0294 208.971C27.5303 213.471 33.6348 216 40 216H64V232H40C33.6348 232 27.5303 234.529 23.0294 239.029C18.5286 243.53 16 249.635 16 256C16 262.365 18.5286 268.47 23.0294 272.971C27.5303 277.471 33.6348 280 40 280H64V296H40C33.6348 296 27.5303 298.529 23.0294 303.029C18.5286 307.53 16 313.635 16 320C16 326.365 18.5286 332.47 23.0294 336.971C27.5303 341.471 33.6348 344 40 344H64V360H40C33.6348 360 27.5303 362.529 23.0294 367.029C18.5286 371.53 16 377.635 16 384C16 390.365 18.5286 396.47 23.0294 400.971C27.5303 405.471 33.6348 408 40 408H64V424C64.0158 426.121 64.8464 428.155 66.32 429.68L82.32 445.68C83.8455 447.154 85.8791 447.984 88 448H104V472C104 478.365 106.529 484.47 111.029 488.971C115.53 493.471 121.635 496 128 496C134.365 496 140.47 493.471 144.971 488.971C149.471 484.47 152 478.365 152 472V448H168V472C168 478.365 170.529 484.47 175.029 488.971C179.53 493.471 185.635 496 192 496C198.365 496 204.47 493.471 208.971 488.971C213.471 484.47 216 478.365 216 472V448H232V472C232 478.365 234.529 484.47 239.029 488.971C243.53 493.471 249.635 496 256 496C262.365 496 268.47 493.471 272.971 488.971C277.471 484.47 280 478.365 280 472V448H296V472C296 478.365 298.529 484.47 303.029 488.971C307.53 493.471 313.635 496 320 496C326.365 496 332.47 493.471 336.971 488.971C341.471 484.47 344 478.365 344 472V448H360V472C360 478.365 362.529 484.47 367.029 488.971C371.53 493.471 377.635 496 384 496C390.365 496 396.47 493.471 400.971 488.971C405.471 484.47 408 478.365 408 472V448H424C426.121 447.984 428.155 447.154 429.68 445.68L445.68 429.68C447.154 428.155 447.984 426.121 448 424V408H472C478.365 408 484.47 405.471 488.971 400.971C493.471 396.47 496 390.365 496 384C496 377.635 493.471 371.53 488.971 367.029C484.47 362.529 478.365 360 472 360H448V344H472C478.365 344 484.47 341.471 488.971 336.971C493.471 332.47 496 326.365 496 320C496 313.635 493.471 307.53 488.971 303.029C484.47 298.529 478.365 296 472 296H448V280H472C478.365 280 484.47 277.471 488.971 272.971C493.471 268.47 496 262.365 496 256C496 249.635 493.471 243.53 488.971 239.029C484.47 234.529 478.365 232 472 232H448V216H472ZM448 120H472C474.122 120 476.157 120.843 477.657 122.343C479.157 123.843 480 125.878 480 128C480 130.122 479.157 132.157 477.657 133.657C476.157 135.157 474.122 136 472 136H448V120ZM448 184H472C474.122 184 476.157 184.843 477.657 186.343C479.157 187.843 480 189.878 480 192C480 194.122 479.157 196.157 477.657 197.657C476.157 199.157 474.122 200 472 200H448V184ZM64 392H40C37.8783 392 35.8434 391.157 34.3431 389.657C32.8429 388.157 32 386.122 32 384C32 381.878 32.8429 379.843 34.3431 378.343C35.8434 376.843 37.8783 376 40 376H64V392ZM64 328H40C37.8783 328 35.8434 327.157 34.3431 325.657C32.8429 324.157 32 322.122 32 320C32 317.878 32.8429 315.843 34.3431 314.343C35.8434 312.843 37.8783 312 40 312H64V328ZM64 264H40C37.8783 264 35.8434 263.157 34.3431 261.657C32.8429 260.157 32 258.122 32 256C32 253.878 32.8429 251.843 34.3431 250.343C35.8434 248.843 37.8783 248 40 248H64V264ZM64 200H40C37.8783 200 35.8434 199.157 34.3431 197.657C32.8429 196.157 32 194.122 32 192C32 189.878 32.8429 187.843 34.3431 186.343C35.8434 184.843 37.8783 184 40 184H64V200ZM64 136H40C37.8783 136 35.8434 135.157 34.3431 133.657C32.8429 132.157 32 130.122 32 128C32 125.878 32.8429 123.843 34.3431 122.343C35.8434 120.843 37.8783 120 40 120H64V136ZM376 40C376 37.8783 376.843 35.8434 378.343 34.3431C379.843 32.8429 381.878 32 384 32C386.122 32 388.157 32.8429 389.657 34.3431C391.157 35.8434 392 37.8783 392 40V64H376V40ZM312 40C312 37.8783 312.843 35.8434 314.343 34.3431C315.843 32.8429 317.878 32 320 32C322.122 32 324.157 32.8429 325.657 34.3431C327.157 35.8434 328 37.8783 328 40V64H312V40ZM248 40C248 37.8783 248.843 35.8434 250.343 34.3431C251.843 32.8429 253.878 32 256 32C258.122 32 260.157 32.8429 261.657 34.3431C263.157 35.8434 264 37.8783 264 40V64H248V40ZM184 40C184 37.8783 184.843 35.8434 186.343 34.3431C187.843 32.8429 189.878 32 192 32C194.122 32 196.157 32.8429 197.657 34.3431C199.157 35.8434 200 37.8783 200 40V64H184V40ZM120 40C120 37.8783 120.843 35.8434 122.343 34.3431C123.843 32.8429 125.878 32 128 32C130.122 32 132.157 32.8429 133.657 34.3431C135.157 35.8434 136 37.8783 136 40V64H120V40ZM136 472C136 474.122 135.157 476.157 133.657 477.657C132.157 479.157 130.122 480 128 480C125.878 480 123.843 479.157 122.343 477.657C120.843 476.157 120 474.122 120 472V448H136V472ZM200 472C200 474.122 199.157 476.157 197.657 477.657C196.157 479.157 194.122 480 192 480C189.878 480 187.843 479.157 186.343 477.657C184.843 476.157 184 474.122 184 472V448H200V472ZM264 472C264 474.122 263.157 476.157 261.657 477.657C260.157 479.157 258.122 480 256 480C253.878 480 251.843 479.157 250.343 477.657C248.843 476.157 248 474.122 248 472V448H264V472ZM328 472C328 474.122 327.157 476.157 325.657 477.657C324.157 479.157 322.122 480 320 480C317.878 480 315.843 479.157 314.343 477.657C312.843 476.157 312 474.122 312 472V448H328V472ZM392 472C392 474.122 391.157 476.157 389.657 477.657C388.157 479.157 386.122 480 384 480C381.878 480 379.843 479.157 378.343 477.657C376.843 476.157 376 474.122 376 472V448H392V472ZM432 420.72L420.72 432H91.28L80 420.72V91.28L91.28 80H420.72L432 91.28V420.72ZM472 376C474.122 376 476.157 376.843 477.657 378.343C479.157 379.843 480 381.878 480 384C480 386.122 479.157 388.157 477.657 389.657C476.157 391.157 474.122 392 472 392H448V376H472ZM472 312C474.122 312 476.157 312.843 477.657 314.343C479.157 315.843 480 317.878 480 320C480 322.122 479.157 324.157 477.657 325.657C476.157 327.157 474.122 328 472 328H448V312H472ZM472 248C474.122 248 476.157 248.843 477.657 250.343C479.157 251.843 480 253.878 480 256C480 258.122 479.157 260.157 477.657 261.657C476.157 263.157 474.122 264 472 264H448V248H472Z" fill="#0172C4"/>
<path d="M408 96H104C101.878 96 99.8434 96.8429 98.3431 98.3431C96.8429 99.8434 96 101.878 96 104V408C96 410.122 96.8429 412.157 98.3431 413.657C99.8434 415.157 101.878 416 104 416H408C410.122 416 412.157 415.157 413.657 413.657C415.157 412.157 416 410.122 416 408V104C416 101.878 415.157 99.8434 413.657 98.3431C412.157 96.8429 410.122 96 408 96ZM400 400H112V112H400V400Z" fill="#0172C4"/>
<path d="M144 160C152.837 160 160 152.837 160 144C160 135.163 152.837 128 144 128C135.163 128 128 135.163 128 144C128 152.837 135.163 160 144 160Z" fill="black"/>
</svg>
