<svg width="576" height="576" viewBox="0 0 576 576" fill="none" xmlns="http://www.w3.org/2000/svg">
<g clip-path="url(#clip0)">
<path d="M290.531 165.123C300.888 165.123 309.283 156.727 309.283 146.371C309.283 136.015 300.888 127.619 290.531 127.619C280.175 127.619 271.779 136.015 271.779 146.371C271.779 156.727 280.175 165.123 290.531 165.123Z" fill="#021042"/>
<path d="M328.188 138.311C328.188 145.067 333.672 150.551 340.428 150.551C347.186 150.551 352.668 145.068 352.668 138.311C352.668 108.966 324.791 85.098 290.531 85.098C256.272 85.098 228.395 108.966 228.395 138.311C228.395 145.067 233.878 150.551 240.635 150.551C247.392 150.551 252.875 145.068 252.875 138.311C252.875 122.466 269.772 109.578 290.531 109.578C311.291 109.578 328.188 122.466 328.188 138.311Z" fill="#002DCD"/>
<path d="M394.48 132.54C394.48 84.265 347.851 44.993 290.531 44.993C233.212 44.993 186.583 84.265 186.583 132.54C186.583 139.296 192.066 144.78 198.823 144.78C205.579 144.78 211.063 139.297 211.063 132.54C211.063 97.766 246.712 69.473 290.531 69.473C334.351 69.473 370 97.766 370 132.54C370 139.296 375.484 144.78 382.24 144.78C388.996 144.78 394.48 139.296 394.48 132.54Z" fill="#1740D3"/>
<path d="M405.318 229.731C408.127 229.731 410.416 227.442 410.416 224.633V210.93C410.416 208.121 408.127 205.832 405.318 205.832C402.509 205.832 400.22 208.121 400.22 210.93V224.633C400.221 227.443 402.51 229.731 405.318 229.731Z" fill="black"/>
<path d="M466.5 248.679C475.934 248.679 483.581 241.032 483.581 231.598C483.581 222.165 475.934 214.517 466.5 214.517C457.067 214.517 449.419 222.165 449.419 231.598C449.419 241.032 457.067 248.679 466.5 248.679Z" fill="black"/>
<path d="M287.178 312.706C269.754 312.706 255.58 326.881 255.58 344.304C255.58 361.728 269.754 375.902 287.178 375.902C304.601 375.902 318.775 361.728 318.775 344.304C318.775 326.881 304.602 312.706 287.178 312.706ZM279.075 356.177C279.063 356.391 278.622 356.722 278.341 356.771C273.359 357.603 268.506 357.071 263.8 355.248C263.396 355.089 263.016 354.85 262.661 354.599C260.868 353.332 260.874 351.65 262.704 350.474C263.499 349.966 264.35 349.495 265.232 349.171C269.754 347.5 274.301 345.884 279.081 344.164C279.081 345.841 279.112 347.39 279.044 348.932C279.038 349.14 278.548 349.404 278.236 349.52C275.733 350.438 273.212 351.313 270.708 352.237C270.126 352.452 269.601 352.812 269.05 353.1C269.062 353.241 269.074 353.381 269.08 353.522C269.631 353.712 270.194 354.097 270.732 354.061C272.28 353.951 273.841 353.773 275.353 353.437C276.577 353.162 277.746 352.617 279.123 352.121C279.106 353.576 279.143 354.88 279.075 356.177ZM289.26 329.684C289.088 330.1 289.131 330.614 289.131 331.091C289.125 340.785 289.131 350.48 289.131 360.173C289.131 360.632 289.131 361.098 289.131 361.728C286.285 360.829 283.647 359.997 281.015 359.133C280.807 359.066 280.623 358.736 280.556 358.496C280.476 358.19 280.525 357.842 280.525 357.511C280.537 346.061 280.55 334.611 280.562 323.159C280.562 322.762 280.562 322.364 280.562 321.813C281.345 321.965 282.024 322.051 282.673 322.241C286.388 323.331 290.103 324.414 293.8 325.57C294.767 325.871 295.677 326.384 296.571 326.881C299.491 328.502 301.173 330.975 301.589 334.298C301.878 336.599 301.982 338.882 301.241 341.134C299.979 344.941 296.479 346.012 292.79 344.255C292.501 344.12 292.317 343.49 292.311 343.086C292.28 339.206 292.323 335.332 292.268 331.452C292.256 330.687 292.041 329.843 291.663 329.187C291.431 328.795 290.665 328.477 290.194 328.544C289.828 328.582 289.449 329.23 289.26 329.684ZM311.498 348.931C313.488 350.253 313.58 351.85 311.578 353.148C310.336 353.95 308.928 354.538 307.533 355.051C302.183 357.022 296.81 358.925 291.443 360.847C291.211 360.932 290.961 360.975 290.545 361.091C290.545 359.506 290.502 358.08 290.58 356.666C290.6 356.373 291.053 355.981 291.389 355.858C295.262 354.438 299.16 353.068 303.047 351.678C303.561 351.494 304.094 351.335 304.57 351.073C304.859 350.914 305.049 350.583 305.281 350.326C305.011 350.118 304.773 349.8 304.467 349.726C302.748 349.291 301.053 349.505 299.401 350.08C296.88 350.955 294.37 351.855 291.854 352.742C291.481 352.871 291.108 352.981 290.551 353.165C290.551 351.457 290.526 349.903 290.58 348.354C290.586 348.146 290.967 347.846 291.228 347.766C297.814 345.692 304.326 345.759 310.728 348.507C310.996 348.612 311.254 348.766 311.498 348.931Z" fill="black"/>
<path d="M506.592 288.771C516.026 288.771 523.673 281.124 523.673 271.69C523.673 262.256 516.026 254.609 506.592 254.609C497.158 254.609 489.511 262.256 489.511 271.69C489.511 281.124 497.158 288.771 506.592 288.771Z" fill="black"/>
<path d="M190.892 326.654C175.868 326.654 163.64 338.882 163.64 353.912C163.64 368.937 175.868 381.165 190.892 381.165C205.923 381.165 218.15 368.937 218.15 353.912C218.15 338.882 205.923 326.654 190.892 326.654Z" fill="black"/>
<path d="M378.482 326.654C363.451 326.654 351.224 338.882 351.224 353.912C351.224 368.937 363.451 381.165 378.482 381.165C393.507 381.165 405.734 368.937 405.734 353.912C405.734 338.882 393.508 326.654 378.482 326.654Z" fill="black"/>
<path d="M507.834 193.63C506.537 191.635 504.01 189.952 500.656 188.55V183.348C500.656 183.348 470.906 163.281 431.445 179.597C431.445 179.597 430.189 180.661 429.707 186.188C427.223 186.739 425.068 187.37 423.311 188.079C415.643 191.182 410.747 190.362 410.747 190.362H383.974C384.947 192.437 385.535 194.726 385.535 197.168V279.788C385.535 288.674 378.306 295.902 369.42 295.902H204.94C196.054 295.902 188.826 288.673 188.826 279.788V197.168C188.826 194.726 189.413 192.438 190.387 190.362H164.64C164.64 190.362 159.744 191.176 152.076 188.079C150.32 187.37 148.165 186.739 145.687 186.188C145.197 180.662 143.943 179.597 143.943 179.597C104.481 163.281 74.7321 183.348 74.7321 183.348V188.55C71.3841 189.952 68.8571 191.629 67.5531 193.63C67.5531 193.63 42.7481 230.833 35.5701 256.286C28.3921 281.739 -6.20792 424.685 0.976079 479.507C8.15508 534.336 91.0501 548.039 112.586 504.96C134.123 461.882 148.486 409.666 148.486 409.666C148.486 409.666 156.968 403.466 158.926 403.466C158.926 403.466 195.481 433.816 234.967 400.853H340.421C379.907 433.816 416.462 403.466 416.462 403.466C418.421 403.466 426.909 409.666 426.909 409.666C426.909 409.666 441.266 461.882 462.809 504.96C484.35 548.039 567.241 534.33 574.418 479.507C581.598 424.678 547.006 281.739 539.828 256.286C532.639 230.833 507.834 193.63 507.834 193.63ZM157.82 210.931C157.82 204.744 162.85 199.713 169.038 199.713C175.226 199.713 180.256 204.744 180.256 210.931V224.634C180.256 230.821 175.226 235.852 169.038 235.852C162.85 235.852 157.82 230.821 157.82 224.634V210.931ZM87.9841 233.557C88.6571 224.2 101.276 224.193 106.662 224.187C112.09 224.193 124.716 224.199 125.383 233.557C125.701 237.975 124.189 252.89 122.133 257.009C120.352 260.565 111.65 266.948 108.681 269.053C108.522 269.187 108.345 269.316 108.155 269.42C107.696 269.665 107.194 269.793 106.692 269.793C106.607 269.793 106.533 269.787 106.454 269.781C105.97 269.744 105.499 269.597 105.071 269.334C104.936 269.249 104.802 269.163 104.685 269.053C101.717 266.941 93.0331 260.576 91.2521 257.015C89.1961 252.902 87.6781 237.981 87.9841 233.557ZM66.5461 292.395C57.1891 291.721 57.1821 279.102 57.1761 273.716C57.1821 268.281 57.1881 255.662 66.5461 254.995C67.0051 254.964 67.5501 254.946 68.1681 254.946C73.3821 254.946 86.1791 256.342 89.9921 258.245C93.5541 260.02 99.9371 268.728 102.042 271.697C102.177 271.856 102.305 272.034 102.409 272.223C102.69 272.756 102.813 273.349 102.77 273.925C102.733 274.408 102.586 274.88 102.323 275.308C102.238 275.443 102.152 275.578 102.042 275.694C99.9311 278.662 93.5601 287.347 89.9981 289.127C86.1791 291.036 73.3641 292.432 68.1501 292.432C67.5431 292.443 67.0051 292.425 66.5461 292.395ZM125.384 313.839C124.723 323.191 112.097 323.196 106.706 323.202H106.687C101.271 323.196 88.6641 323.19 87.9841 313.839C87.6721 309.408 89.1901 294.493 91.2401 290.387C93.0211 286.82 101.723 280.442 104.685 278.331C104.863 278.178 105.064 278.043 105.291 277.939C105.419 277.872 105.554 277.81 105.689 277.773C106.503 277.498 107.378 277.553 108.143 277.963C108.37 278.085 108.578 278.232 108.767 278.403C111.827 280.576 120.371 286.861 122.127 290.386C124.184 294.506 125.696 309.42 125.384 313.839ZM146.834 292.395C146.375 292.425 145.836 292.444 145.231 292.444C140.01 292.444 127.195 291.043 123.377 289.139C119.815 287.358 113.444 278.667 111.333 275.699C111.235 275.583 111.149 275.46 111.064 275.326C110.684 274.714 110.538 274.004 110.623 273.319C110.666 272.945 110.776 272.585 110.966 272.242C111.076 272.034 111.205 271.85 111.352 271.673C113.481 268.68 119.834 260.027 123.378 258.252C127.19 256.342 139.994 254.953 145.208 254.953C145.826 254.953 146.365 254.971 146.836 255.002C156.188 255.663 156.194 268.289 156.2 273.68C156.192 279.102 156.186 291.721 146.834 292.395ZM190.892 387.285C172.489 387.285 157.519 372.315 157.519 353.912C157.519 335.504 172.489 320.534 190.892 320.534C209.301 320.534 224.27 335.504 224.27 353.912C224.271 372.315 209.301 387.285 190.892 387.285ZM287.178 378.968C268.065 378.968 252.52 363.423 252.52 344.311C252.52 325.198 268.065 309.653 287.178 309.653C306.291 309.653 321.836 325.198 321.836 344.311C321.836 363.423 306.291 378.968 287.178 378.968ZM466.5 208.397C479.291 208.397 489.701 218.807 489.701 231.598C489.701 244.389 479.291 254.799 466.5 254.799C453.709 254.799 443.299 244.389 443.299 231.598C443.299 218.808 453.709 208.397 466.5 208.397ZM394.1 210.931C394.1 204.744 399.131 199.713 405.319 199.713C411.507 199.713 416.538 204.744 416.538 210.931V224.634C416.538 230.821 411.507 235.852 405.319 235.852C399.131 235.852 394.1 230.821 394.1 224.634V210.931ZM378.482 387.285C360.074 387.285 345.103 372.315 345.103 353.912C345.103 335.504 360.074 320.534 378.482 320.534C396.884 320.534 411.855 335.504 411.855 353.912C411.855 372.315 396.885 387.285 378.482 387.285ZM426.408 294.892C413.617 294.892 403.207 284.481 403.207 271.691C403.207 258.9 413.617 248.49 426.408 248.49C439.199 248.49 449.609 258.9 449.609 271.691C449.609 284.481 439.205 294.892 426.408 294.892ZM466.5 334.978C453.709 334.978 443.299 324.568 443.299 311.777C443.299 298.986 453.709 288.576 466.5 288.576C479.291 288.576 489.701 298.986 489.701 311.777C489.701 324.568 479.291 334.978 466.5 334.978ZM506.592 294.892C493.801 294.892 483.391 284.481 483.391 271.691C483.391 258.9 493.801 248.49 506.592 248.49C519.383 248.49 529.793 258.9 529.793 271.691C529.793 284.481 519.383 294.892 506.592 294.892Z" fill="#1740D3"/>
<path d="M426.408 288.771C435.842 288.771 443.489 281.124 443.489 271.69C443.489 262.256 435.842 254.609 426.408 254.609C416.975 254.609 409.327 262.256 409.327 271.69C409.327 281.124 416.975 288.771 426.408 288.771Z" fill="black"/>
<path d="M466.5 328.857C475.934 328.857 483.581 321.21 483.581 311.776C483.581 302.342 475.934 294.695 466.5 294.695C457.067 294.695 449.419 302.342 449.419 311.776C449.419 321.21 457.067 328.857 466.5 328.857Z" fill="black"/>
<path d="M169.038 229.731C171.847 229.731 174.136 227.442 174.136 224.633V210.93C174.136 208.121 171.847 205.832 169.038 205.832C166.229 205.832 163.94 208.121 163.94 210.93V224.633C163.939 227.443 166.229 229.731 169.038 229.731Z" fill="black"/>
<path d="M106.687 284.444C102.115 287.804 97.3971 291.757 96.7171 293.122C95.4871 295.576 93.7741 308.845 94.0921 313.398C94.2631 315.834 98.4991 317.076 106.663 317.082L106.706 320.143V317.082C114.876 317.076 119.099 315.84 119.276 313.398C119.607 308.85 117.887 295.588 116.656 293.122C116.032 291.88 111.656 288.098 106.687 284.444Z" fill="black"/>
<path d="M87.2561 263.728C85.0771 262.633 73.8351 261.072 68.1681 261.072C67.7221 261.072 67.3171 261.084 66.9871 261.109C64.5451 261.28 63.3031 265.509 63.2971 273.679C63.3031 281.886 64.5391 286.115 66.9871 286.292C67.3181 286.316 67.7031 286.329 68.1441 286.329C73.8171 286.329 85.0721 284.763 87.2571 283.667C88.6221 282.988 92.5751 278.27 95.9351 273.698C92.2801 268.722 88.4991 264.346 87.2561 263.728Z" fill="black"/>
<path d="M106.687 262.945C111.656 259.298 116.032 255.515 116.656 254.273C117.886 251.813 119.6 238.544 119.276 233.997C119.105 231.555 114.876 230.313 106.706 230.307C98.4991 230.313 94.2701 231.55 94.0921 233.997C93.7681 238.544 95.4881 251.818 96.7171 254.273C97.3911 255.625 102.115 259.585 106.687 262.945Z" fill="black"/>
<path d="M146.394 261.109C146.051 261.085 145.653 261.072 145.206 261.072C139.533 261.072 128.29 262.633 126.112 263.728C124.87 264.353 121.088 268.722 117.44 273.698C120.8 278.27 124.753 282.994 126.112 283.667C128.468 284.842 141.645 286.629 146.394 286.292C148.83 286.121 150.072 281.886 150.078 273.722C150.072 265.509 148.835 261.28 146.394 261.109Z" fill="black"/>
<path d="M194.943 197.173V279.793C194.943 285.301 199.423 289.787 204.937 289.787H369.417C374.925 289.787 379.411 285.307 379.411 279.793V197.173C379.411 194.541 378.372 192.154 376.694 190.367H197.661C195.984 192.155 194.943 194.536 194.943 197.173Z" fill="black"/>
</g>
<defs>
<clipPath id="clip0">
<rect width="575.395" height="575.395" fill="white"/>
</clipPath>
</defs>
</svg>
