<svg width="225" height="303" viewBox="0 0 225 303" fill="none" xmlns="http://www.w3.org/2000/svg">
<path d="M52.5002 199.475C40.0913 199.475 30.0002 213.065 30.0002 229.775C30.0002 246.486 40.0913 260.075 52.5002 260.075C64.909 260.075 75.0002 246.486 75.0002 229.775C75.0002 213.065 64.9086 199.475 52.5002 199.475ZM52.5002 249.975C44.2275 249.975 37.5003 240.915 37.5003 229.775C37.5003 218.635 44.2279 209.575 52.5002 209.575C60.7724 209.575 67.5 218.635 67.5 229.775C67.5 240.915 60.7724 249.975 52.5002 249.975Z" fill="black"/>
<path d="M180 199.475C167.591 199.475 157.5 213.065 157.5 229.775C157.5 246.486 167.591 260.075 180 260.075C192.409 260.075 202.5 246.486 202.5 229.775C202.5 213.065 192.409 199.475 180 199.475ZM180 249.975C171.727 249.975 165 240.915 165 229.775C165 218.635 171.728 209.575 180 209.575C188.273 209.575 195 218.635 195 229.775C195 240.915 188.273 249.975 180 249.975Z" fill="black"/>
<path d="M224.404 171.493L190.654 100.793C189.964 99.3485 188.775 98.475 187.5 98.475H146.25C144.176 98.475 142.5 100.737 142.5 103.525V229.775C142.5 232.567 144.176 234.824 146.25 234.824H161.25V224.724H150V108.575H185.452L217.5 175.71V224.725H198.75V234.825H221.25C223.323 234.825 225 232.568 225 229.775V174.225C225 173.26 224.794 172.306 224.404 171.493Z" fill="#0026AE"/>
<path d="M165 164.125V128.775H195V118.675H161.25C159.176 118.675 157.5 120.937 157.5 123.725V169.175C157.5 171.967 159.176 174.224 161.25 174.224H217.5V164.124H165V164.125Z" fill="#0026AE"/>
<path d="M146.25 63.1252H3.74985C1.68003 63.1252 0 65.3876 0 68.175V229.775C0 232.568 1.68003 234.825 3.74985 234.825H33.75V224.725H7.50015V73.2248H142.5V224.725H71.2499V234.825H146.25C148.324 234.825 150 232.568 150 229.775V68.175C150 65.3876 148.324 63.1252 146.25 63.1252Z" fill="#0026AE"/>
<path d="M26.2498 204.525H3.74985V214.625H26.2498V204.525Z" fill="#0026AE"/>
<path d="M142.5 204.525H78.75V214.625H142.5V204.525Z" fill="#0026AE"/>
<path d="M221.25 204.525H206.25V214.625H221.25V204.525Z" fill="#0026AE"/>
<path d="M146.25 83.325H14.9998V93.4252H146.25V83.325Z" fill="#0026AE"/>
<path d="M56.25 224.725H48.7499V234.825H56.25V224.725Z" fill="black"/>
<path d="M183.75 224.725H176.25V234.825H183.75V224.725Z" fill="black"/>
<path d="M67.5 42.9248H14.9998V53.025H67.5V42.9248Z" fill="#0026AE"/>
<path d="M7.50015 42.9248H0V53.025H7.50015V42.9248Z" fill="#0026AE"/>
</svg>
