<svg width="512" height="512" viewBox="0 0 512 512" fill="none" xmlns="http://www.w3.org/2000/svg">
<path d="M498.347 117.973C479.574 99.2 447.147 99.2 430.08 117.973L256 290.346L83.627 117.973C75.093 109.439 61.441 104.32 49.494 104.32C35.841 104.32 23.894 109.44 15.361 117.973C5.12 128.213 0 140.159 0 153.813C0 167.467 5.12 179.413 13.653 187.946L221.866 394.453C230.4 402.987 244.053 408.106 255.999 408.106C267.946 408.106 281.599 402.986 290.132 394.453L498.347 186.24C506.88 177.706 512 164.053 512 152.106C512 140.159 506.88 126.506 498.347 117.973ZM472.747 162.346L266.24 370.56C261.12 375.68 250.88 375.68 245.76 370.56L39.253 164.053C35.84 160.64 34.133 157.226 34.133 153.813C34.133 150.4 35.839 146.986 39.253 143.573C42.667 140.16 46.08 138.453 49.493 138.453C52.906 138.453 56.32 140.16 59.733 143.573L244.053 327.893C247.466 331.306 250.88 333.013 255.999 333.013C261.119 333.013 264.533 331.306 267.946 327.893L452.266 141.866C457.386 136.746 467.626 136.746 472.746 141.866C476.159 145.279 477.866 148.693 477.866 152.106C477.867 157.226 476.16 160.639 472.747 162.346Z" fill="#1740D3"/>
</svg>
