<svg width="472" height="472" viewBox="0 0 472 472" fill="none" xmlns="http://www.w3.org/2000/svg">
<g clip-path="url(#clip0)">
<path d="M434.717 123.98C434.717 101.749 416.696 83.729 394.466 83.729H40.251C18.021 83.729 0 101.75 0 123.98V159.227H434.717V123.98Z" fill="#0026AE"/>
<path d="M402.391 253.235C401.413 252.257 399.831 252.257 398.856 253.235L360.319 291.77L344.927 276.38C343.989 275.442 342.329 275.442 341.393 276.38L327.249 290.524C326.78 290.993 326.518 291.628 326.518 292.292C326.518 292.956 326.782 293.591 327.249 294.06L358.55 325.359C359.038 325.847 359.677 326.091 360.319 326.091C360.958 326.091 361.598 325.847 362.087 325.359L416.534 270.914C417.003 270.445 417.266 269.81 417.266 269.145C417.266 268.482 417.001 267.846 416.534 267.376L402.391 253.235Z" fill="black"/>
<path d="M372.023 188.502C353.801 188.502 336.711 193.414 321.994 201.977H0V324.087C0 346.316 18.021 364.338 40.251 364.338H307.478C324.892 379.143 347.432 388.088 372.025 388.088C427.05 388.088 471.818 343.322 471.818 288.295C471.816 233.269 427.05 188.502 372.023 188.502ZM148.392 309.309C148.392 312.161 146.079 314.473 143.228 314.473H63.604C60.752 314.473 58.439 312.161 58.439 309.309V293.599C58.439 290.746 60.752 288.434 63.604 288.434H143.228C146.08 288.434 148.392 290.746 148.392 293.599V309.309ZM372.023 351.547C337.088 351.547 308.772 323.229 308.772 288.296C308.772 253.363 337.088 225.046 372.023 225.046C406.956 225.046 435.273 253.364 435.273 288.296C435.273 323.228 406.956 351.547 372.023 351.547Z" fill="#0026AE"/>
</g>
<defs>
<clipPath id="clip0">
<rect width="471.817" height="471.817" fill="white"/>
</clipPath>
</defs>
</svg>
