<svg width="512" height="512" viewBox="0 0 512 512" fill="none" xmlns="http://www.w3.org/2000/svg">
<path d="M501.333 85.333C495.445 85.333 490.666 90.112 490.666 96V373.333C490.667 414.507 457.173 448 416 448C374.827 448 341.333 414.507 341.333 373.333V96C341.333 43.072 298.261 0 245.333 0H224C174.72 0 134.464 37.461 129.088 85.333H96C43.072 85.333 0 128.405 0 181.333V373.333C0 449.792 62.208 512 138.667 512C215.126 512 277.334 449.792 277.334 373.333V181.333C277.334 128.405 234.262 85.333 181.334 85.333H150.422C155.649 49.237 186.475 21.333 224.001 21.333H245.334C286.507 21.333 320 54.827 320 96V373.333C320 426.261 363.072 469.333 416 469.333C468.928 469.333 512 426.261 512 373.333V96C512 90.112 507.221 85.333 501.333 85.333ZM138.667 149.333C141.334 149.333 149.334 160.682 149.334 181.333C149.334 201.984 141.334 213.333 138.667 213.333C136 213.333 128 201.984 128 181.333C128 160.683 136 149.333 138.667 149.333ZM21.333 181.333C21.333 140.16 54.826 106.666 96 106.666H128V131.05C115.349 138.09 106.667 157.269 106.667 181.333C106.667 205.397 115.35 224.576 128 231.616V256H21.333V181.333ZM256 373.333C256 438.037 203.371 490.666 138.667 490.666C73.963 490.666 21.333 438.037 21.333 373.333V277.333H256V373.333ZM181.333 106.667C222.506 106.667 256 140.16 256 181.334V256H149.333V231.616C161.984 224.576 170.666 205.397 170.666 181.333C170.666 157.269 161.983 138.09 149.333 131.05V106.666H181.333V106.667Z" fill="#0172C4"/>
</svg>
