<svg width="512" height="512" viewBox="0 0 512 512" fill="none" xmlns="http://www.w3.org/2000/svg">
<path d="M42.6666 204.8C44.9348 204.813 47.1149 203.923 48.7253 202.325L82.8586 168.192C86.2048 164.846 86.2048 159.421 82.8586 156.075C79.5125 152.729 74.0874 152.729 70.7413 156.075L36.608 190.208C34.9925 191.81 34.0838 193.991 34.0838 196.267C34.0838 198.542 34.9925 200.723 36.608 202.325C38.2184 203.923 40.3985 204.813 42.6666 204.8V204.8Z" fill="black"/>
<path d="M42.6666 256C44.9348 256.013 47.1149 255.123 48.7253 253.525L134.059 168.192C137.405 164.846 137.405 159.421 134.059 156.075C130.713 152.729 125.287 152.729 121.941 156.075L36.608 241.408C34.9925 243.01 34.0838 245.191 34.0838 247.467C34.0838 249.742 34.9925 251.923 36.608 253.525C38.2184 255.123 40.3985 256.013 42.6666 256V256Z" fill="black"/>
<path d="M486.4 0H264.533C250.395 0 238.933 11.4615 238.933 25.6V119.467H42.6667C19.1025 119.467 0 138.569 0 162.133V384C0 407.564 19.1025 426.667 42.6667 426.667H136.533V460.8H110.933C96.7948 460.8 85.3333 472.262 85.3333 486.4C85.3333 500.539 96.7948 512 110.933 512H486.4C500.539 512 512 500.539 512 486.4V25.6C512 11.4615 500.539 0 486.4 0ZM42.6667 136.533H349.867C364.005 136.533 375.467 147.995 375.467 162.133V366.933H17.0667V162.133C17.0667 147.995 28.5282 136.533 42.6667 136.533ZM17.0667 384H375.467C375.467 398.139 364.005 409.6 349.867 409.6H42.6667C28.5282 409.6 17.0667 398.139 17.0667 384ZM153.6 426.667H238.933V460.8H153.6V426.667ZM264.533 494.933H110.933C106.221 494.933 102.4 491.113 102.4 486.4C102.4 481.687 106.221 477.867 110.933 477.867H281.6C286.313 477.867 290.133 481.687 290.133 486.4C290.133 491.113 286.313 494.933 281.6 494.933H264.533ZM494.933 486.4C494.933 491.113 491.113 494.933 486.4 494.933H305.664C308.43 487.11 307.233 478.431 302.451 471.649C297.67 464.867 289.898 460.823 281.6 460.8H256V426.667H349.867C373.431 426.667 392.533 407.564 392.533 384V162.133C392.533 138.569 373.431 119.467 349.867 119.467H256V25.6C256 20.8872 259.821 17.0667 264.533 17.0667H486.4C491.113 17.0667 494.933 20.8872 494.933 25.6V486.4Z" fill="#1740D3"/>
<path d="M460.8 42.6667H290.133C280.708 42.6667 273.067 50.3077 273.067 59.7333V76.8C273.067 86.2257 280.708 93.8667 290.133 93.8667H460.8C470.226 93.8667 477.867 86.2257 477.867 76.8V59.7333C477.867 50.3077 470.226 42.6667 460.8 42.6667ZM290.133 76.8V59.7333H460.8V76.8H290.133Z" fill="#1740D3"/>
<path d="M443.733 170.667C457.872 170.667 469.333 159.205 469.333 145.067C469.333 130.928 457.872 119.467 443.733 119.467C429.595 119.467 418.133 130.928 418.133 145.067C418.133 159.205 429.595 170.667 443.733 170.667ZM443.733 136.533C448.446 136.533 452.267 140.354 452.267 145.067C452.267 149.779 448.446 153.6 443.733 153.6C439.021 153.6 435.2 149.779 435.2 145.067C435.2 140.354 439.021 136.533 443.733 136.533Z" fill="black"/>
<path d="M469.333 213.333C469.333 199.195 457.872 187.733 443.733 187.733C429.595 187.733 418.133 199.195 418.133 213.333C418.133 227.472 429.595 238.933 443.733 238.933C457.872 238.933 469.333 227.472 469.333 213.333ZM443.733 221.867C439.021 221.867 435.2 218.046 435.2 213.333C435.2 208.621 439.021 204.8 443.733 204.8C448.446 204.8 452.267 208.621 452.267 213.333C452.267 218.046 448.446 221.867 443.733 221.867Z" fill="black"/>
<path d="M332.8 443.733C328.087 443.733 324.267 447.554 324.267 452.267V469.333C324.267 474.046 328.087 477.867 332.8 477.867C337.513 477.867 341.333 474.046 341.333 469.333V452.267C341.333 447.554 337.513 443.733 332.8 443.733Z" fill="black"/>
<path d="M366.933 443.733C362.22 443.733 358.4 447.554 358.4 452.267V469.333C358.4 474.046 362.22 477.867 366.933 477.867C371.646 477.867 375.467 474.046 375.467 469.333V452.267C375.467 447.554 371.646 443.733 366.933 443.733Z" fill="black"/>
<path d="M401.067 443.733C396.354 443.733 392.533 447.554 392.533 452.267V469.333C392.533 474.046 396.354 477.867 401.067 477.867C405.779 477.867 409.6 474.046 409.6 469.333V452.267C409.6 447.554 405.779 443.733 401.067 443.733Z" fill="black"/>
<path d="M435.2 443.733C430.487 443.733 426.667 447.554 426.667 452.267V469.333C426.667 474.046 430.487 477.867 435.2 477.867C439.913 477.867 443.733 474.046 443.733 469.333V452.267C443.733 447.554 439.913 443.733 435.2 443.733Z" fill="black"/>
<path d="M469.333 443.733C464.621 443.733 460.8 447.554 460.8 452.267V469.333C460.8 474.046 464.621 477.867 469.333 477.867C474.046 477.867 477.867 474.046 477.867 469.333V452.267C477.867 447.554 474.046 443.733 469.333 443.733Z" fill="black"/>
</svg>
