<svg width="299" height="323" viewBox="0 0 299 323" fill="none" xmlns="http://www.w3.org/2000/svg">
<path d="M96.3346 208.817H96.3483C96.3597 208.817 96.3711 208.815 96.3825 208.815H255.201C259.111 208.815 262.549 206.013 263.623 201.951L298.662 69.471C299.417 66.6149 298.888 63.5444 297.234 61.1737C295.578 58.8031 292.989 57.4083 290.24 57.4083H76.1324L69.8705 26.9668C68.9786 22.6371 65.4245 19.5567 61.3184 19.5567H8.75977C3.92136 19.5567 0 23.7928 0 29.0196C0 34.2464 3.92136 38.4825 8.75977 38.4825H54.2923C55.401 43.8768 84.258 184.159 85.9187 192.23C76.6092 196.601 70.0781 206.629 70.0781 218.277C70.0781 233.931 81.8673 246.666 96.3574 246.666H255.201C260.04 246.666 263.961 242.43 263.961 237.203C263.961 231.976 260.04 227.74 255.201 227.74H96.3574C91.5281 227.74 87.5977 223.494 87.5977 218.277C87.5977 213.068 91.5145 208.829 96.3346 208.817V208.817ZM278.627 76.3341L248.593 189.889H103.383L80.0241 76.3341H278.627Z" fill="#0026AE"/>
<path d="M87.5976 275.055C87.5976 290.708 99.3868 303.443 113.877 303.443C128.367 303.443 140.156 290.708 140.156 275.055C140.156 259.401 128.367 246.666 113.877 246.666C99.3868 246.666 87.5976 259.401 87.5976 275.055ZM113.877 265.592C118.706 265.592 122.637 269.838 122.637 275.055C122.637 280.272 118.706 284.518 113.877 284.518C109.048 284.518 105.117 280.272 105.117 275.055C105.117 269.838 109.048 265.592 113.877 265.592Z" fill="black"/>
<path d="M211.402 275.055C211.402 290.708 223.191 303.443 237.682 303.443C252.172 303.443 263.961 290.708 263.961 275.055C263.961 259.401 252.172 246.666 237.682 246.666C223.191 246.666 211.402 259.401 211.402 275.055ZM237.682 265.592C242.511 265.592 246.441 269.838 246.441 275.055C246.441 280.272 242.511 284.518 237.682 284.518C232.852 284.518 228.922 280.272 228.922 275.055C228.922 269.838 232.852 265.592 237.682 265.592Z" fill="black"/>
</svg>
